<svg xmlns="http://www.w3.org/2000/svg" version="1.1" xmlns:xlink="http://www.w3.org/1999/xlink" xmlns:svgjs="http://svgjs.dev/svgjs" width="128" height="128" viewBox="0 0 128 128"><g transform="matrix(0.8046875,0,0,0.8046875,12.760752631578946,12.760752631578946)"><svg viewBox="0 0 95 95" data-background-color="#151030" preserveAspectRatio="xMidYMid meet" height="128" width="128" xmlns="http://www.w3.org/2000/svg" xmlns:xlink="http://www.w3.org/1999/xlink"><g id="tight-bounds" transform="matrix(1,0,0,1,-0.24049999999999727,-0.24049999999999727)"><svg viewBox="0 0 95.481 95.481" height="95.481" width="95.481"><g><svg viewBox="0 0 95.481 95.481" height="95.481" width="95.481"><g><svg viewBox="0 0 95.481 95.481" height="95.481" width="95.481"><g id="textblocktransform"><svg viewBox="0 0 95.481 95.481" height="95.481" width="95.481" id="textblock"><g><svg viewBox="0 0 95.481 95.481" height="95.481" width="95.481"><g><svg viewBox="0 0 95.481 95.481" height="95.481" width="95.481"><g><svg xmlns="http://www.w3.org/2000/svg" xmlns:xlink="http://www.w3.org/1999/xlink" version="1.1" x="0" y="0" viewBox="5 5 90 90" enable-background="new 0 0 100 100" xml:space="preserve" height="95.481" width="95.481" class="icon-icon-0" data-fill-palette-color="accent" id="icon-0"><g fill="#f3f3f3" data-fill-palette-color="accent"><path d="M94.547 5H5.453C5.202 5 5 5.202 5 5.453v89.094C5 94.798 5.202 95 5.453 95h89.094C94.798 95 95 94.798 95 94.547V5.453C95 5.202 94.798 5 94.547 5zM20.226 94.085H5.915V79.774h14.311V94.085zM20.226 79.313H5.915V65.002h14.311V79.313zM20.226 64.541H5.915V50.23h14.311V64.541zM20.226 49.77H5.915V35.459h14.311V49.77zM20.226 34.998H5.915V20.687h14.311V34.998zM20.226 20.226H5.915V5.915h14.311V20.226zM34.998 94.085H20.687V79.774h14.312V94.085zM34.998 79.313H20.687V65.002h14.312V79.313zM34.998 64.541H20.687V50.23h14.312V64.541zM34.998 49.77H20.687V35.459h14.312V49.77zM34.998 34.998H20.687V20.687h14.312V34.998zM34.998 20.226H20.687V5.915h14.312V20.226zM49.77 94.085H35.459V79.774H49.77V94.085zM49.77 79.313H35.459V65.002H49.77V79.313zM49.77 64.541H35.459V50.23H49.77V64.541zM49.77 49.77H35.459V35.459H49.77V49.77zM49.77 34.998H35.459V20.687H49.77V34.998zM49.77 20.226H35.459V5.915H49.77V20.226zM64.541 94.085H50.23V79.774h14.311V94.085zM64.541 79.313H50.23V65.002h14.311V79.313zM64.541 64.541H50.23V50.23h14.311V64.541zM64.541 49.77H50.23V35.459h14.311V49.77zM64.541 34.998H50.23V20.687h14.311V34.998zM64.541 20.226H50.23V5.915h14.311V20.226zM79.313 94.085H65.002V79.774h14.312V94.085zM79.313 79.313H65.002V65.002h14.312V79.313zM79.313 64.541H65.002V50.23h14.312V64.541zM79.313 49.77H65.002V35.459h14.312V49.77zM79.313 34.998H65.002V20.687h14.312V34.998zM79.313 20.226H65.002V5.915h14.312V20.226zM94.085 94.085H79.774V79.774h14.311V94.085zM94.085 79.313H79.774V65.002h14.311V79.313zM94.085 64.541H79.774V50.23h14.311V64.541zM94.085 49.77H79.774V35.459h14.311V49.77zM94.085 34.998H79.774V20.687h14.311V34.998zM94.085 20.226H79.774V5.915h14.311V20.226z" fill="#ffffff" data-fill-palette-color="accent"></path><path d="M87.324 80.134c-4.214 0-5.918-11.044-8.349-29.063-1.688-12.5-3.997-29.618-7.405-29.618-3.551 0-7.402 12.326-10.496 22.232-4.211 13.48-7.054 21.665-11.002 21.665-4.311 0-5.963-8.836-7.877-19.066-1.612-8.615-3.618-19.336-7.133-19.336-3.613 0-7.844 15.842-10.933 27.408-4.23 15.842-7.021 25.552-10.903 25.552-2.431 0-4.383-1.752-5.8-5.205-0.191-0.464 0.031-0.994 0.494-1.184 0.462-0.191 0.993 0.029 1.184 0.494 1.111 2.707 2.499 4.08 4.122 4.08 2.688 0 6.422-13.99 9.15-24.205 4.777-17.892 8.016-28.754 12.686-28.754 5.021 0 6.913 10.11 8.916 20.815 1.466 7.835 3.29 17.586 6.094 17.586 2.899 0 6.432-11.307 9.27-20.392 3.94-12.614 7.343-23.507 12.229-23.507 4.658 0 6.584 11.784 9.203 31.192 1.564 11.601 3.709 27.489 6.551 27.489 1.409 0 2.281-1.28 3.596-3.974 0.218-0.45 0.761-0.64 1.213-0.417 0.45 0.219 0.637 0.763 0.417 1.213C91.466 77.366 90.114 80.134 87.324 80.134z" fill="#ffffff" data-fill-palette-color="accent"></path></g></svg></g></svg></g></svg></g></svg></g></svg></g></svg></g><defs></defs></svg><rect width="95.481" height="95.481" fill="none" stroke="none" visibility="hidden"></rect></g></svg></g></svg>