<svg xmlns="http://www.w3.org/2000/svg" version="1.1" xmlns:xlink="http://www.w3.org/1999/xlink" xmlns:svgjs="http://svgjs.dev/svgjs" width="2000" height="439" viewBox="0 0 2000 439"><g transform="matrix(1,0,0,1,-1.2121212121213603,0.7170491011693798)"><svg viewBox="0 0 396 87" data-background-color="#151030" preserveAspectRatio="xMidYMid meet" height="439" width="2000" xmlns="http://www.w3.org/2000/svg" xmlns:xlink="http://www.w3.org/1999/xlink"><g id="tight-bounds" transform="matrix(1,0,0,1,0.24000000000003752,-0.14210312483311327)"><svg viewBox="0 0 395.5199999999999 87.28420624966623" height="87.28420624966623" width="395.5199999999999"><g><svg viewBox="0 0 423.14697265624994 93.3809861328125" height="87.28420624966623" width="395.5199999999999"><g><svg viewBox="0 0 423.14697265624994 93.3809861328125" height="93.3809861328125" width="423.14697265624994"><g id="textblocktransform"><svg viewBox="0 0 423.14697265624994 93.3809861328125" height="93.3809861328125" width="423.14697265624994" id="textblock"><g><svg viewBox="0 0 423.14697265624994 61.22802734374999" height="61.22802734374999" width="423.14697265624994"><g><svg><g></g><g></g></svg></g><g><svg><g><svg></svg></g><g></g></svg></g><g id="text-0"><svg viewBox="0 0 423.14697265624994 61.22802734374999" height="61.22802734374999" width="423.14697265624994"><g transform="matrix(1,0,0,1,0,11.595458984374996)"><svg width="230.00488281249997" viewBox="2.98 -36.16 229.99 37.839999999999996" height="37.841796875" data-palette-color="#d1caff"><path d="M17.26-15.48L16.06-1.95Q16.04-1.73 15.98-1.53 15.92-1.32 15.65-1.2L15.65-1.2Q15.55-1.15 14.69-0.84 13.82-0.54 12.68-0.13 11.55 0.27 10.44 0.67 9.33 1.07 8.74 1.29L8.74 1.29Q8.45 1.42 8.02 1.55 7.59 1.68 7.18 1.68L7.18 1.68Q6.84 1.68 6.58 1.51 6.32 1.34 6.32 0.88L6.32 0.88Q6.32-0.2 6.38-1.09 6.45-1.98 6.54-2.95 6.64-3.93 6.75-5.11 6.86-6.3 6.96-7.93L6.96-7.93Q7.08-10.08 7.23-12.07 7.37-14.06 7.52-16.21L7.52-16.21 7.86-20.39Q7.93-21.41 8.01-22.47 8.08-23.54 8.15-24.66L8.15-24.66 8.42-27.64Q8.42-27.69 8.28-27.69L8.28-27.69Q8.08-27.69 7.62-27.6 7.15-27.51 6.52-27.39 5.88-27.27 5.11-27.14 4.35-27 3.54-26.88L3.54-26.88Q3.34-26.88 3.16-26.97 2.98-27.05 2.98-27.17L2.98-27.17Q2.98-27.27 3.03-27.32L3.03-27.32 6.98-34.23Q8.33-34.52 9.88-34.83 11.43-35.13 13.21-35.38 14.99-35.62 16.99-35.78 18.99-35.94 21.24-35.94L21.24-35.94Q23.78-35.89 26.18-35.44 28.59-34.99 30.46-33.92 32.32-32.86 33.46-31.04 34.59-29.22 34.59-26.44L34.59-26.44Q34.59-24.9 34.07-23.61 33.54-22.31 32.73-21.28 31.91-20.24 30.93-19.45 29.96-18.65 29.06-18.09 28.17-17.53 27.49-17.2 26.81-16.87 26.56-16.77L26.56-16.77Q26.56-16.72 26.6-16.65 26.64-16.58 26.76-16.37 26.88-16.16 27.11-15.78 27.34-15.41 27.71-14.75L27.71-14.75Q28.1-14.16 28.64-13.18 29.17-12.21 29.92-10.88 30.66-9.55 31.64-7.91 32.62-6.27 33.89-4.39L33.89-4.39Q34.3-4.03 34.84-3.94 35.38-3.86 35.84-3.85 36.3-3.83 36.62-3.8 36.94-3.76 36.94-3.49L36.94-3.49Q36.94-3.3 36.54-3.04 36.13-2.78 35.6-2.51 35.06-2.25 34.51-2 33.96-1.76 33.67-1.61L33.67-1.61Q33.08-1.32 32.45-1.05 31.81-0.78 31.08-0.45 30.35-0.12 29.46 0.32 28.56 0.76 27.44 1.37L27.44 1.37Q27.15 1.54 26.89 1.6 26.64 1.66 26.42 1.66L26.42 1.66Q25.98 1.66 25.66 1.45 25.34 1.25 25.12 0.95 24.9 0.66 24.77 0.35 24.63 0.05 24.54-0.15L24.54-0.15 17.26-15.48ZM18.53-28.86L17.55-18.48Q18.8-18.48 20.14-19.12 21.48-19.75 22.58-20.75 23.68-21.75 24.39-23.02 25.1-24.29 25.1-25.59L25.1-25.59Q25.1-29.13 20.85-29.13L20.85-29.13Q20.04-29.13 19.51-29.02 18.97-28.91 18.53-28.86L18.53-28.86ZM52.32-34.99L52.32-34.99Q52.29-34.4 52.22-33.53 52.15-32.67 52.06-31.7 51.98-30.74 51.87-29.75 51.76-28.76 51.67-27.93 51.58-27.1 51.54-26.5 51.49-25.9 51.49-25.73L51.49-25.73Q51.39-24.22 51.28-22.92 51.17-21.63 51.05-20.36 50.93-19.09 50.79-17.74 50.66-16.38 50.51-14.75 50.36-13.11 50.18-11.11 50-9.11 49.8-6.52L49.8-6.52 59.91-7.54Q60.59-7.62 61.03-7.62L61.03-7.62Q61.57-7.62 61.7-7.45 61.84-7.28 61.84-6.91L61.84-6.91Q61.84-6.86 61.81-6.77 61.79-6.69 61.7-6.45 61.62-6.2 61.46-5.74 61.3-5.27 61.03-4.44L61.03-4.44 60.5-2.83Q60.23-2.05 60-1.43 59.76-0.81 59.42-0.35 59.08 0.1 58.57 0.37 58.05 0.63 57.25 0.71L57.25 0.71Q56.74 0.76 55.86 0.79 54.98 0.83 53.83 0.87 52.68 0.9 51.35 0.95 50.02 1 48.63 1.07L48.63 1.07Q47.26 1.12 45.87 1.14 44.48 1.15 43.23 1.17 41.99 1.2 40.94 1.22 39.89 1.25 39.21 1.27L39.21 1.27Q38.57 1.27 38.29 1.17 38.01 1.07 38.01 0.85L38.01 0.85Q38.01 0.59 38.18 0.09 38.35-0.42 38.62-1.04 38.89-1.66 39.22-2.33 39.55-3 39.87-3.64L39.87-3.64 40.52-12.35Q40.72-14.58 40.92-16.87 41.11-19.17 41.26-21.31L41.26-21.31 41.67-27.78Q41.82-30.08 41.87-31.12 41.92-32.15 41.92-32.25L41.92-32.25Q41.97-32.69 41.99-32.98 42.01-33.28 42.08-33.47 42.14-33.67 42.26-33.76 42.38-33.86 42.62-33.91L42.62-33.91 51.19-35.94Q51.46-36.04 51.85-36.04L51.85-36.04Q52.12-36.04 52.23-35.88 52.34-35.72 52.34-35.28L52.34-35.28Q52.34-35.23 52.33-35.14 52.32-35.06 52.32-34.99ZM65.18-0.37L64.77-9.08Q64.77-9.11 64.75-9.13 64.74-9.16 64.74-9.18L64.74-9.18Q64.74-9.59 65.18-9.59L65.18-9.59Q65.4-9.59 65.67-9.38L65.67-9.38Q66.99-8.13 68.6-7.4 70.21-6.67 72.11-6.67L72.11-6.67Q72.63-6.67 73.29-6.77 73.95-6.88 74.53-7.14 75.12-7.4 75.52-7.81 75.92-8.23 75.92-8.86L75.92-8.86Q75.92-9.57 75.58-10.13 75.24-10.69 74.68-11.08L74.68-11.08Q74.46-11.23 74.02-11.57 73.58-11.91 73.02-12.35 72.46-12.79 71.85-13.29 71.24-13.79 70.69-14.25 70.14-14.7 69.7-15.06 69.26-15.43 69.04-15.63L69.04-15.63Q67.6-16.7 66.76-17.8 65.91-18.9 65.47-20.09 65.03-21.29 64.91-22.57 64.79-23.85 64.79-25.29L64.79-25.29Q64.79-27.44 65.82-29.37 66.84-31.3 68.71-32.73 70.58-34.16 73.19-35 75.8-35.84 79-35.84L79-35.84Q79.39-35.84 80.17-35.75 80.95-35.67 81.89-35.47 82.83-35.28 83.81-34.94 84.79-34.59 85.59-34.06L85.59-34.06Q85.86-33.86 86.02-33.67 86.18-33.47 86.23-33.06L86.23-33.06Q86.35-31.08 86.42-29.16 86.49-27.25 86.62-25.1L86.62-25.1Q86.62-24.68 86.45-24.55 86.27-24.41 86.01-24.41L86.01-24.41Q85.74-24.41 85.59-24.56L85.59-24.56Q84.88-25.27 84.13-25.95 83.37-26.64 82.54-27.16 81.71-27.69 80.77-28 79.83-28.32 78.73-28.32L78.73-28.32Q78.07-28.32 77.41-28.21 76.75-28.1 76.22-27.81 75.68-27.51 75.35-27 75.02-26.49 75.02-25.71L75.02-25.71Q75.02-24.88 75.23-24.27 75.43-23.66 76.26-23.12L76.26-23.12 82.12-19.14Q83.74-17.99 84.74-16.86 85.74-15.72 86.3-14.6 86.86-13.48 87.07-12.39 87.28-11.3 87.28-10.25L87.28-10.25Q87.28-8.54 86.71-7.03 86.15-5.52 85.18-4.24 84.2-2.95 82.89-1.94 81.59-0.93 80.1-0.21 78.61 0.51 77.01 0.89 75.41 1.27 73.87 1.27L73.87 1.27Q72.68 1.27 71.52 1.23 70.36 1.2 69.26 1.04 68.16 0.88 67.13 0.55 66.11 0.22 65.18-0.37L65.18-0.37ZM115.2-33.89L122.82-35.94Q122.94-35.96 123.05-35.97 123.16-35.99 123.26-35.99L123.26-35.99Q123.7-35.99 123.97-35.71 124.24-35.42 124.33-34.72L124.33-34.72Q124.38-34.28 124.49-33.48 124.6-32.69 124.74-31.73 124.87-30.76 125.03-29.74 125.19-28.71 125.31-27.84 125.43-26.98 125.53-26.35 125.63-25.73 125.65-25.56L125.65-25.56Q126.19-21.24 126.6-18.63 127.02-16.02 127.19-14.77L127.19-14.77 128.83-1.56 128.58-0.81Q128.53-0.63 127.95-0.39 127.36-0.15 126.53 0.13 125.7 0.42 124.72 0.68 123.75 0.95 122.92 1.17 122.09 1.39 121.51 1.53 120.94 1.66 120.92 1.66L120.92 1.66Q120.33 1.66 119.99 0.81 119.65-0.05 119.43-1.37 119.21-2.69 119.07-4.25 118.94-5.81 118.77-7.25L118.77-7.25Q118.62-8.45 118.5-9.67 118.38-10.89 118.23-12.16L118.23-12.16 117.28-19.29 108.22-2.71Q107.81-2.12 107.39-1.87 106.97-1.61 106.61-1.61L106.61-1.61Q106.07-1.61 105.77-1.93 105.46-2.25 105.34-2.71L105.34-2.71Q104.88-4.25 104.55-5.31 104.22-6.37 103.94-7.25 103.65-8.13 103.41-8.96 103.17-9.79 102.86-10.88 102.56-11.96 102.18-13.44 101.8-14.92 101.26-17.07L101.26-17.07 100.51-13.55 96.99 1.37Q96.92 1.66 96.38 1.66L96.38 1.66Q95.87 1.66 94.98 1.46 94.08 1.27 93.12 0.99 92.16 0.71 91.24 0.4 90.32 0.1 89.79-0.15L89.79-0.15Q89.67-0.2 89.48-0.38 89.3-0.56 89.3-0.95L89.3-0.95Q89.3-1.05 89.37-1.37 89.45-1.68 89.56-2.11 89.67-2.54 89.8-2.98 89.93-3.42 90.06-3.76L90.06-3.76Q90.37-4.59 90.63-5.71 90.89-6.84 91.11-7.98 91.33-9.13 91.51-10.18 91.69-11.23 91.86-11.94L91.86-11.94 94.87-25.95 95.77-29.91Q95.94-30.66 96.1-31.38 96.26-32.1 96.38-32.69 96.5-33.28 96.57-33.64 96.65-34.01 96.65-34.06L96.65-34.06 102.75-35.94Q103.09-35.94 103.35-35.88 103.61-35.82 103.68-35.47L103.68-35.47 108.54-19.85 115.2-33.89ZM131.58-1.78L131.58-1.78Q131.9-2.42 132.24-3.21 132.58-4 132.88-4.93L132.88-4.93 133.53-6.54Q133.1-7.2 132.64-7.97 132.19-8.74 131.83-9.55 131.46-10.35 131.23-11.16 131-11.96 131-12.72L131-12.72Q131-12.77 131.37-12.81 131.75-12.84 132.33-12.87 132.9-12.89 133.57-12.9 134.24-12.92 134.82-12.93 135.39-12.94 135.77-12.95 136.15-12.96 136.15-12.96L136.15-12.96Q136.71-14.43 137.25-15.75 137.78-17.07 138.32-18.41 138.86-19.75 139.39-21.15 139.93-22.56 140.47-24.17L140.47-24.17Q141.49-27.2 142.47-29.49 143.45-31.79 144.3-33.76L144.3-33.76Q144.4-34.01 144.63-34.22 144.86-34.42 145.13-34.57 145.4-34.72 145.66-34.81 145.91-34.91 146.06-34.96L146.06-34.96Q146.16-34.99 146.8-35.18 147.45-35.38 148.28-35.6 149.11-35.82 149.93-35.99 150.75-36.16 151.24-36.16L151.24-36.16 151.67-36.16Q152.07-36.16 152.42-35.97 152.77-35.79 152.9-35.25L152.9-35.25Q154.07-32.25 155.4-28.7 156.73-25.15 158-20.87L158-20.87Q158.68-18.58 159.34-16.53 160-14.48 160.66-12.52 161.32-10.57 161.99-8.62 162.66-6.67 163.37-4.59L163.37-4.59Q163.59-3.71 163.82-3.2 164.05-2.69 164.25-2.39 164.44-2.1 164.57-1.97 164.69-1.83 164.69-1.68L164.69-1.68Q164.69-1.54 164.22-1.39L164.22-1.39 158.97 0.32Q158.39 0.54 157.78 0.76 157.17 0.98 156.63 1.15 156.09 1.32 155.69 1.43 155.29 1.54 155.12 1.54L155.12 1.54 154.97 1.54Q154.63 1.54 154.48 1.33 154.34 1.12 154.29 0.93L154.29 0.93Q154.04 0.12 153.8-0.52 153.55-1.17 153.32-1.82 153.09-2.47 152.86-3.2 152.63-3.93 152.41-4.93L152.41-4.93Q152.36-5.05 152.14-5.14 151.92-5.22 151.61-5.27 151.31-5.32 150.97-5.33 150.62-5.35 150.33-5.35L150.33-5.35Q149.4-5.35 148.83-5.33 148.26-5.32 147.82-5.31 147.38-5.3 146.97-5.29 146.57-5.27 145.99-5.27L145.99-5.27Q145.28-5.27 144.53-5.29 143.79-5.3 143.18-5.32L143.18-5.32 141.79-5.37Q141.15-3.61 140.52-2.08 139.88-0.54 139.15 1.1L139.15 1.1Q139.1 1.29 138.92 1.42 138.74 1.54 138.54 1.54L138.54 1.54Q138.39 1.54 138.37 1.51L138.37 1.51Q136 0.66 134.39-0.17 132.78-1 131.58-1.78ZM148.04-23.73L148.04-23.73Q147.45-21.56 146.88-19.79 146.3-18.02 145.83-16.65 145.35-15.28 145.01-14.34 144.67-13.4 144.52-12.89L144.52-12.89 144.52-12.67Q144.52-12.52 144.5-12.48L144.5-12.48 150.36-12.48Q150.09-13.67 149.78-14.89 149.48-16.11 149.18-17.46 148.89-18.8 148.6-20.34 148.31-21.88 148.04-23.73ZM179.53-15.48L178.33-1.95Q178.31-1.73 178.25-1.53 178.19-1.32 177.92-1.2L177.92-1.2Q177.82-1.15 176.95-0.84 176.09-0.54 174.95-0.13 173.82 0.27 172.7 0.67 171.59 1.07 171.01 1.29L171.01 1.29Q170.72 1.42 170.29 1.55 169.86 1.68 169.45 1.68L169.45 1.68Q169.1 1.68 168.85 1.51 168.59 1.34 168.59 0.88L168.59 0.88Q168.59-0.2 168.65-1.09 168.71-1.98 168.81-2.95 168.91-3.93 169.02-5.11 169.13-6.3 169.23-7.93L169.23-7.93Q169.35-10.08 169.49-12.07 169.64-14.06 169.79-16.21L169.79-16.21 170.13-20.39Q170.2-21.41 170.28-22.47 170.35-23.54 170.42-24.66L170.42-24.66 170.69-27.64Q170.69-27.69 170.54-27.69L170.54-27.69Q170.35-27.69 169.88-27.6 169.42-27.51 168.79-27.39 168.15-27.27 167.38-27.14 166.61-27 165.81-26.88L165.81-26.88Q165.61-26.88 165.43-26.97 165.25-27.05 165.25-27.17L165.25-27.17Q165.25-27.27 165.3-27.32L165.3-27.32 169.25-34.23Q170.59-34.52 172.14-34.83 173.69-35.13 175.48-35.38 177.26-35.62 179.26-35.78 181.26-35.94 183.51-35.94L183.51-35.94Q186.05-35.89 188.45-35.44 190.86-34.99 192.72-33.92 194.59-32.86 195.73-31.04 196.86-29.22 196.86-26.44L196.86-26.44Q196.86-24.9 196.34-23.61 195.81-22.31 194.99-21.28 194.18-20.24 193.2-19.45 192.22-18.65 191.33-18.09 190.44-17.53 189.76-17.2 189.07-16.87 188.83-16.77L188.83-16.77Q188.83-16.72 188.87-16.65 188.9-16.58 189.03-16.37 189.15-16.16 189.38-15.78 189.61-15.41 189.98-14.75L189.98-14.75Q190.37-14.16 190.91-13.18 191.44-12.21 192.19-10.88 192.93-9.55 193.91-7.91 194.88-6.27 196.15-4.39L196.15-4.39Q196.57-4.03 197.11-3.94 197.64-3.86 198.11-3.85 198.57-3.83 198.89-3.8 199.21-3.76 199.21-3.49L199.21-3.49Q199.21-3.3 198.8-3.04 198.4-2.78 197.86-2.51 197.33-2.25 196.78-2 196.23-1.76 195.93-1.61L195.93-1.61Q195.35-1.32 194.71-1.05 194.08-0.78 193.35-0.45 192.61-0.12 191.72 0.32 190.83 0.76 189.71 1.37L189.71 1.37Q189.42 1.54 189.16 1.6 188.9 1.66 188.68 1.66L188.68 1.66Q188.24 1.66 187.93 1.45 187.61 1.25 187.39 0.95 187.17 0.66 187.04 0.35 186.9 0.05 186.8-0.15L186.8-0.15 179.53-15.48ZM180.8-28.86L179.82-18.48Q181.07-18.48 182.41-19.12 183.75-19.75 184.85-20.75 185.95-21.75 186.66-23.02 187.37-24.29 187.37-25.59L187.37-25.59Q187.37-29.13 183.12-29.13L183.12-29.13Q182.31-29.13 181.77-29.02 181.24-28.91 180.8-28.86L180.8-28.86ZM199.86-1.78L199.86-1.78Q200.18-2.42 200.52-3.21 200.86-4 201.16-4.93L201.16-4.93 201.82-6.54Q201.38-7.2 200.92-7.97 200.47-8.74 200.11-9.55 199.74-10.35 199.51-11.16 199.28-11.96 199.28-12.72L199.28-12.72Q199.28-12.77 199.66-12.81 200.03-12.84 200.61-12.87 201.18-12.89 201.85-12.9 202.52-12.92 203.1-12.93 203.67-12.94 204.05-12.95 204.43-12.96 204.43-12.96L204.43-12.96Q204.99-14.43 205.53-15.75 206.06-17.07 206.6-18.41 207.14-19.75 207.68-21.15 208.21-22.56 208.75-24.17L208.75-24.17Q209.78-27.2 210.75-29.49 211.73-31.79 212.58-33.76L212.58-33.76Q212.68-34.01 212.91-34.22 213.14-34.42 213.41-34.57 213.68-34.72 213.94-34.81 214.19-34.91 214.34-34.96L214.34-34.96Q214.44-34.99 215.09-35.18 215.73-35.38 216.56-35.6 217.39-35.82 218.21-35.99 219.03-36.16 219.52-36.16L219.52-36.16 219.96-36.16Q220.35-36.16 220.7-35.97 221.05-35.79 221.18-35.25L221.18-35.25Q222.35-32.25 223.68-28.7 225.01-25.15 226.28-20.87L226.28-20.87Q226.96-18.58 227.62-16.53 228.28-14.48 228.94-12.52 229.6-10.57 230.27-8.62 230.94-6.67 231.65-4.59L231.65-4.59Q231.87-3.71 232.1-3.2 232.33-2.69 232.53-2.39 232.72-2.1 232.85-1.97 232.97-1.83 232.97-1.68L232.97-1.68Q232.97-1.54 232.5-1.39L232.5-1.39 227.26 0.32Q226.67 0.54 226.06 0.76 225.45 0.98 224.91 1.15 224.37 1.32 223.97 1.43 223.57 1.54 223.4 1.54L223.4 1.54 223.25 1.54Q222.91 1.54 222.76 1.33 222.62 1.12 222.57 0.93L222.57 0.93Q222.32 0.12 222.08-0.52 221.84-1.17 221.6-1.82 221.37-2.47 221.14-3.2 220.91-3.93 220.69-4.93L220.69-4.93Q220.64-5.05 220.42-5.14 220.2-5.22 219.89-5.27 219.59-5.32 219.25-5.33 218.91-5.35 218.61-5.35L218.61-5.35Q217.69-5.35 217.11-5.33 216.54-5.32 216.1-5.31 215.66-5.3 215.26-5.29 214.85-5.27 214.27-5.27L214.27-5.27Q213.56-5.27 212.81-5.29 212.07-5.3 211.46-5.32L211.46-5.32 210.07-5.37Q209.43-3.61 208.8-2.08 208.16-0.54 207.43 1.1L207.43 1.1Q207.38 1.29 207.2 1.42 207.02 1.54 206.82 1.54L206.82 1.54Q206.67 1.54 206.65 1.51L206.65 1.51Q204.28 0.66 202.67-0.17 201.06-1 199.86-1.78ZM216.32-23.73L216.32-23.73Q215.73-21.56 215.16-19.79 214.58-18.02 214.11-16.65 213.63-15.28 213.29-14.34 212.95-13.4 212.8-12.89L212.8-12.89 212.8-12.67Q212.8-12.52 212.78-12.48L212.78-12.48 218.64-12.48Q218.37-13.67 218.06-14.89 217.76-16.11 217.47-17.46 217.17-18.8 216.88-20.34 216.59-21.88 216.32-23.73Z" opacity="1" transform="matrix(1,0,0,1,0,0)" fill="#d1caff" class="undefined-yy-0"></path></svg></g><g><svg xmlns="http://www.w3.org/2000/svg" xmlns:xlink="http://www.w3.org/1999/xlink" version="1.1" x="244.46044921874997" y="0" viewBox="5 5 90 90" enable-background="new 0 0 100 100" xml:space="preserve" height="61.22802734374999" width="61.22802734374999" class="icon-cg-0" data-fill-palette-color="accent" id="cg-0"><g fill="#f3f3f3" data-fill-palette-color="accent"><path d="M94.547 5H5.453C5.202 5 5 5.202 5 5.453v89.094C5 94.798 5.202 95 5.453 95h89.094C94.798 95 95 94.798 95 94.547V5.453C95 5.202 94.798 5 94.547 5zM20.226 94.085H5.915V79.774h14.311V94.085zM20.226 79.313H5.915V65.002h14.311V79.313zM20.226 64.541H5.915V50.23h14.311V64.541zM20.226 49.77H5.915V35.459h14.311V49.77zM20.226 34.998H5.915V20.687h14.311V34.998zM20.226 20.226H5.915V5.915h14.311V20.226zM34.998 94.085H20.687V79.774h14.312V94.085zM34.998 79.313H20.687V65.002h14.312V79.313zM34.998 64.541H20.687V50.23h14.312V64.541zM34.998 49.77H20.687V35.459h14.312V49.77zM34.998 34.998H20.687V20.687h14.312V34.998zM34.998 20.226H20.687V5.915h14.312V20.226zM49.77 94.085H35.459V79.774H49.77V94.085zM49.77 79.313H35.459V65.002H49.77V79.313zM49.77 64.541H35.459V50.23H49.77V64.541zM49.77 49.77H35.459V35.459H49.77V49.77zM49.77 34.998H35.459V20.687H49.77V34.998zM49.77 20.226H35.459V5.915H49.77V20.226zM64.541 94.085H50.23V79.774h14.311V94.085zM64.541 79.313H50.23V65.002h14.311V79.313zM64.541 64.541H50.23V50.23h14.311V64.541zM64.541 49.77H50.23V35.459h14.311V49.77zM64.541 34.998H50.23V20.687h14.311V34.998zM64.541 20.226H50.23V5.915h14.311V20.226zM79.313 94.085H65.002V79.774h14.312V94.085zM79.313 79.313H65.002V65.002h14.312V79.313zM79.313 64.541H65.002V50.23h14.312V64.541zM79.313 49.77H65.002V35.459h14.312V49.77zM79.313 34.998H65.002V20.687h14.312V34.998zM79.313 20.226H65.002V5.915h14.312V20.226zM94.085 94.085H79.774V79.774h14.311V94.085zM94.085 79.313H79.774V65.002h14.311V79.313zM94.085 64.541H79.774V50.23h14.311V64.541zM94.085 49.77H79.774V35.459h14.311V49.77zM94.085 34.998H79.774V20.687h14.311V34.998zM94.085 20.226H79.774V5.915h14.311V20.226z" fill="#ffffff" data-fill-palette-color="accent"></path><path d="M87.324 80.134c-4.214 0-5.918-11.044-8.349-29.063-1.688-12.5-3.997-29.618-7.405-29.618-3.551 0-7.402 12.326-10.496 22.232-4.211 13.48-7.054 21.665-11.002 21.665-4.311 0-5.963-8.836-7.877-19.066-1.612-8.615-3.618-19.336-7.133-19.336-3.613 0-7.844 15.842-10.933 27.408-4.23 15.842-7.021 25.552-10.903 25.552-2.431 0-4.383-1.752-5.8-5.205-0.191-0.464 0.031-0.994 0.494-1.184 0.462-0.191 0.993 0.029 1.184 0.494 1.111 2.707 2.499 4.08 4.122 4.08 2.688 0 6.422-13.99 9.15-24.205 4.777-17.892 8.016-28.754 12.686-28.754 5.021 0 6.913 10.11 8.916 20.815 1.466 7.835 3.29 17.586 6.094 17.586 2.899 0 6.432-11.307 9.27-20.392 3.94-12.614 7.343-23.507 12.229-23.507 4.658 0 6.584 11.784 9.203 31.192 1.564 11.601 3.709 27.489 6.551 27.489 1.409 0 2.281-1.28 3.596-3.974 0.218-0.45 0.761-0.64 1.213-0.417 0.45 0.219 0.637 0.763 0.417 1.213C91.466 77.366 90.114 80.134 87.324 80.134z" fill="#ffffff" data-fill-palette-color="accent"></path></g></svg></g><g transform="matrix(1,0,0,1,320.14404296874994,11.790771484374996)"><svg width="103.00292968749999" viewBox="1.98 -35.96 103 37.64" height="37.646484375" data-palette-color="#d1caff"><path d="M26-32.15L26-32.15Q26-33.03 26.16-33.36 26.32-33.69 26.81-33.81L26.81-33.81 35.21-35.84Q35.52-35.94 35.86-35.94L35.86-35.94Q36.21-35.94 36.33-35.73 36.45-35.52 36.45-34.89L36.45-34.89 36.16-31.05Q36.04-29.37 35.89-27.71 35.74-26.05 35.45-24.8L35.45-24.8 35.01-21.34Q34.81-19.8 34.64-18.01 34.47-16.21 34.28-13.99L34.28-13.99 33.13-1.95Q33.11-1.73 33.03-1.51 32.96-1.29 32.71-1.2L32.71-1.2Q32.54-1.12 31.92-0.88 31.3-0.63 30.44-0.32 29.59 0 28.61 0.35 27.64 0.71 26.76 1 25.88 1.29 25.2 1.49 24.51 1.68 24.27 1.68L24.27 1.68Q23.93 1.68 23.67 1.5 23.41 1.32 23.41 0.81L23.41 0.81Q23.41-2.15 23.75-5.24 24.1-8.33 24.37-11.38L24.37-11.38Q24.41-11.72 24.4-12.01 24.39-12.3 24.44-12.65L24.44-12.65 15.5-12.65 14.5-1.95Q14.48-1.73 14.42-1.53 14.36-1.32 14.09-1.2L14.09-1.2Q13.99-1.15 13.12-0.84 12.26-0.54 11.12-0.13 9.99 0.27 8.87 0.67 7.76 1.07 7.18 1.29L7.18 1.29Q6.88 1.42 6.46 1.55 6.03 1.68 5.62 1.68L5.62 1.68Q5.27 1.68 5.02 1.49 4.76 1.29 4.76 0.78L4.76 0.78Q4.76-0.39 4.85-1.89 4.93-3.39 5.05-5.04 5.18-6.69 5.35-8.42 5.52-10.16 5.69-11.84L5.69-11.84 5.74-12.55Q3.76-12.55 2.87-12.66 1.98-12.77 1.98-13.23L1.98-13.23Q1.98-13.55 2.34-14.06L2.34-14.06Q2.83-14.75 3.48-15.71 4.13-16.67 4.72-17.61 5.32-18.55 5.8-19.3 6.27-20.04 6.42-20.26L6.42-20.26 6.98-26.15Q6.98-26.2 7.03-26.88 7.08-27.56 7.15-28.5 7.23-29.44 7.31-30.44 7.4-31.45 7.47-32.15L7.47-32.15Q7.52-33.01 7.6-33.35 7.69-33.69 8.18-33.81L8.18-33.81 16.48-35.84Q16.8-35.94 17.14-35.94L17.14-35.94Q17.48-35.94 17.6-35.73 17.72-35.52 17.72-34.89L17.72-34.89Q17.55-33.13 17.46-31.69 17.36-30.25 17.25-29 17.14-27.76 17.02-26.64 16.89-25.51 16.67-24.34L16.67-24.34 16.19-20.56 25.05-20.65Q25.27-23.9 25.54-26.17 25.81-28.44 25.88-29.76L25.88-29.76Q25.95-31.01 25.98-31.54 26-32.08 26-32.15ZM70.09-34.91L70.09-34.91Q70.04-34.25 69.92-32.97 69.8-31.69 69.64-30.07 69.48-28.44 69.31-26.66 69.14-24.88 68.98-23.25 68.82-21.63 68.7-20.31 68.58-18.99 68.53-18.33L68.53-18.33Q68.02-13.13 66.78-9.41 65.55-5.69 63.55-3.32 61.55-0.95 58.75 0.16 55.95 1.27 52.29 1.27L52.29 1.27Q49.78 1.27 47.56 0.35 45.33-0.56 43.67-2.22 42.01-3.88 41.05-6.21 40.09-8.54 40.09-11.4L40.09-11.4Q40.09-11.77 40.15-12.73 40.21-13.7 40.32-15.09 40.43-16.48 40.56-18.25 40.7-20.02 40.84-22.02L40.84-22.02 41.14-26.07Q41.28-28.3 41.35-29.77 41.43-31.25 41.51-32.15 41.6-33.06 41.77-33.47 41.94-33.89 42.31-34.01L42.31-34.01 50.63-35.86Q50.95-35.96 51.29-35.96L51.29-35.96Q51.68-35.96 51.82-35.74 51.95-35.52 51.95-34.91L51.95-34.91 50.1-15.67Q50.05-14.82 49.92-13.82 49.8-12.82 49.8-11.77L49.8-11.77Q49.8-11.13 49.96-10.38 50.12-9.62 50.53-8.95 50.95-8.28 51.67-7.82 52.39-7.37 53.54-7.37L53.54-7.37Q54.93-7.37 55.78-7.97 56.64-8.57 57.15-9.56 57.66-10.55 57.9-11.8 58.13-13.06 58.27-14.38L58.27-14.38Q58.4-15.92 58.57-17.99 58.74-20.07 58.91-22.44L58.91-22.44 59.62-32.18Q59.67-32.62 59.68-32.91 59.69-33.2 59.74-33.4 59.79-33.59 59.95-33.69 60.1-33.79 60.45-33.84L60.45-33.84 68.77-35.86Q69.09-35.96 69.43-35.96L69.43-35.96Q69.77-35.96 69.93-35.75 70.09-35.55 70.09-34.91ZM76.19-0.32L76.19-0.32Q75.7-0.44 75.53-0.7 75.36-0.95 75.36-1.27L75.36-1.27Q75.36-1.34 75.37-1.37 75.39-1.39 75.39-1.46L75.39-1.46Q75.58-4.1 75.81-6.99 76.04-9.89 76.31-12.88 76.58-15.87 76.85-18.85 77.12-21.83 77.39-24.63L77.39-24.63 77.36-24.63Q77.27-24.63 76.81-24.48 76.36-24.32 75.79-24.13 75.21-23.95 74.63-23.8 74.04-23.66 73.68-23.66L73.68-23.66Q73.36-23.66 73.22-23.9 73.09-24.15 73.09-24.44L73.09-24.44Q73.09-24.66 73.16-24.85L73.16-24.85Q73.82-26.76 74.53-28.42 75.24-30.08 75.95-31.84L75.95-31.84Q77.8-32.84 79.8-33.58 81.81-34.33 83.85-34.83 85.88-35.33 87.91-35.58 89.94-35.84 91.84-35.84L91.84-35.84Q94.5-35.84 96.86-35.28 99.21-34.72 100.96-33.58 102.7-32.45 103.72-30.73 104.73-29 104.73-26.68L104.73-26.68Q104.73-25.68 104.29-24.76 103.85-23.83 103.16-22.99 102.46-22.14 101.61-21.42 100.75-20.7 99.92-20.12L99.92-20.12Q101.09-19.26 102.03-18.57 102.97-17.87 103.63-17.11 104.29-16.36 104.63-15.42 104.98-14.48 104.98-13.13L104.98-13.13Q104.98-11.08 104.26-9.22 103.54-7.35 102.28-5.75 101.02-4.15 99.3-2.86 97.58-1.56 95.56-0.65 93.55 0.27 91.32 0.77 89.08 1.27 86.81 1.27L86.81 1.27Q85.98 1.27 84.59 1.1 83.2 0.93 81.67 0.7 80.15 0.46 78.67 0.18 77.19-0.1 76.19-0.32ZM87.45-27.1L87.45-27.1Q86.98-24.22 86.66-21.25 86.35-18.29 86.12-15.49 85.88-12.7 85.71-10.18 85.54-7.67 85.37-5.69L85.37-5.69Q86.35-5.69 87.48-5.8 88.62-5.91 89.74-6.18 90.86-6.45 91.93-6.87 92.99-7.3 93.79-7.93 94.6-8.57 95.09-9.44 95.58-10.3 95.58-11.43L95.58-11.43Q95.58-12.11 95.16-12.63 94.75-13.16 94.1-13.54 93.45-13.92 92.67-14.17 91.89-14.43 91.14-14.59 90.4-14.75 89.78-14.83 89.16-14.92 88.84-14.97L88.84-14.97Q88.5-15.01 88.4-15.21 88.3-15.41 88.3-15.7L88.3-15.7Q88.3-16.02 88.69-16.65 89.08-17.29 89.77-18.38L89.77-18.38 90.79-20.02Q91.45-20.26 92.22-20.63 92.99-21 93.65-21.47 94.31-21.95 94.75-22.55 95.19-23.14 95.19-23.85L95.19-23.85Q95.19-25.85 94.32-26.92 93.45-27.98 91.82-27.98L91.82-27.98Q89.96-27.98 87.45-27.1Z" opacity="1" transform="matrix(1,0,0,1,0,0)" fill="#d1caff" class="undefined-yy-1"></path></svg></g></svg></g></svg></g><g transform="matrix(1,0,0,1,0,70.1154587890625)"><svg viewBox="0 0 423.14697265624994 23.26552734375" height="23.26552734375" width="423.14697265624994"><g transform="matrix(1,0,0,1,0,0)"><svg width="423.14697265624994" viewBox="1.35 -41.05 757.52 41.65" height="23.26552734375" data-palette-color="#d1caff"><path d="M14.15 0L6.25 0 1.35-40.5 8.95-40.5 11.35-16.9 14.4-40.45 20.35-40.45 23.55-17.05 26-40.5 33.5-40.5 28.65 0 20.85 0 17.4-24.45 14.15 0ZM56.16 0L47.21 0 47.21-40.5 56.16-40.5 56.16-24.1 62.41-24.1 62.41-40.5 71.41-40.5 71.41 0 62.41 0 62.41-17.7 56.16-17.7 56.16 0ZM105.27 0L86.97 0 86.97-40.5 105.17-40.5 105.17-34.4 95.92-34.4 95.92-24.35 102.97-24.35 102.97-18.15 95.92-18.15 95.92-6.05 105.27-6.05 105.27 0ZM127.67 0L118.72 0 118.72-40.5 129.87-40.5Q133.97-40.5 136.97-39.6 139.97-38.7 141.65-36.38 143.32-34.05 143.32-29.8L143.32-29.8Q143.32-27.3 142.92-25.35 142.52-23.4 141.45-21.98 140.37-20.55 138.37-19.6L138.37-19.6 143.92 0 134.67 0 130.22-18.15 127.67-18.15 127.67 0ZM127.67-34.5L127.67-23.3 130.17-23.3Q132.07-23.3 133.12-23.98 134.17-24.65 134.6-25.93 135.02-27.2 135.02-29L135.02-29Q135.02-31.6 134.07-33.05 133.12-34.5 130.57-34.5L130.57-34.5 127.67-34.5ZM176.23 0L157.93 0 157.93-40.5 176.13-40.5 176.13-34.4 166.88-34.4 166.88-24.35 173.93-24.35 173.93-18.15 166.88-18.15 166.88-6.05 176.23-6.05 176.23 0ZM222.25 0L211.9 0 211.9-40.5 222.15-40.5Q227.45-40.5 230.4-39.18 233.35-37.85 234.55-35.02 235.75-32.2 235.75-27.7L235.75-27.7 235.75-13Q235.75-8.45 234.55-5.58 233.35-2.7 230.42-1.35 227.5 0 222.25 0L222.25 0ZM220.85-34.25L220.85-6.2 222.25-6.2Q224.3-6.2 225.2-6.8 226.1-7.4 226.32-8.6 226.55-9.8 226.55-11.6L226.55-11.6 226.55-29.25Q226.55-31.05 226.27-32.15 226-33.25 225.1-33.75 224.2-34.25 222.2-34.25L222.2-34.25 220.85-34.25ZM256.5 0L248.05 0 255.7-40.5 265.9-40.5 273.45 0 265.2 0 263.85-8.55 257.9-8.55 256.5 0ZM260.85-29.7L258.7-13.9 263-13.9 260.85-29.7ZM297.46 0L288.46 0 288.46-33.85 282.36-33.85 282.36-40.5 303.51-40.5 303.51-33.85 297.46-33.85 297.46 0ZM321.17 0L312.72 0 320.37-40.5 330.57-40.5 338.12 0 329.87 0 328.52-8.55 322.57-8.55 321.17 0ZM325.52-29.7L323.37-13.9 327.67-13.9 325.52-29.7ZM379.73 0L373.28 0 373.98-40.5 383.58-40.5 388.03-16.95 392.83-40.5 402.08-40.5 402.78 0 396.43 0 395.68-26.95 390.98 0 385.33 0 380.33-27.15 379.73 0ZM435.74 0L417.44 0 417.44-40.5 435.64-40.5 435.64-34.4 426.39-34.4 426.39-24.35 433.44-24.35 433.44-18.15 426.39-18.15 426.39-6.05 435.74-6.05 435.74 0ZM467.5 0L449.2 0 449.2-40.5 467.4-40.5 467.4-34.4 458.15-34.4 458.15-24.35 465.2-24.35 465.2-18.15 458.15-18.15 458.15-6.05 467.5-6.05 467.5 0ZM493.61 0L484.61 0 484.61-33.85 478.51-33.85 478.51-40.5 499.66-40.5 499.66-33.85 493.61-33.85 493.61 0ZM523.37 0.6L523.37 0.6Q519.57 0.6 517.02-0.75 514.47-2.1 513.17-4.93 511.87-7.75 511.72-12.25L511.72-12.25 519.37-13.4Q519.42-10.8 519.84-9.2 520.27-7.6 521.04-6.9 521.82-6.2 522.92-6.2L522.92-6.2Q524.32-6.2 524.74-7.15 525.17-8.1 525.17-9.15L525.17-9.15Q525.17-11.65 523.97-13.38 522.77-15.1 520.72-16.85L520.72-16.85 517.22-19.9Q514.92-21.85 513.34-24.33 511.77-26.8 511.77-30.45L511.77-30.45Q511.77-35.6 514.82-38.33 517.87-41.05 523.12-41.05L523.12-41.05Q526.37-41.05 528.34-39.95 530.32-38.85 531.34-37.08 532.37-35.3 532.74-33.33 533.12-31.35 533.17-29.55L533.17-29.55 525.47-28.6Q525.42-30.4 525.24-31.73 525.07-33.05 524.52-33.77 523.97-34.5 522.82-34.5L522.82-34.5Q521.57-34.5 520.99-33.45 520.42-32.4 520.42-31.35L520.42-31.35Q520.42-29.1 521.49-27.68 522.57-26.25 524.32-24.7L524.32-24.7 527.67-21.75Q530.32-19.5 532.14-16.65 533.97-13.8 533.97-9.6L533.97-9.6Q533.97-6.75 532.67-4.42 531.37-2.1 528.99-0.75 526.62 0.6 523.37 0.6ZM579.48 0L569.13 0 569.13-40.5 579.38-40.5Q584.68-40.5 587.63-39.18 590.58-37.85 591.78-35.02 592.98-32.2 592.98-27.7L592.98-27.7 592.98-13Q592.98-8.45 591.78-5.58 590.58-2.7 587.66-1.35 584.73 0 579.48 0L579.48 0ZM578.08-34.25L578.08-6.2 579.48-6.2Q581.53-6.2 582.43-6.8 583.33-7.4 583.56-8.6 583.78-9.8 583.78-11.6L583.78-11.6 583.78-29.25Q583.78-31.05 583.51-32.15 583.23-33.25 582.33-33.75 581.43-34.25 579.43-34.25L579.43-34.25 578.08-34.25ZM626.14 0L607.84 0 607.84-40.5 626.04-40.5 626.04-34.4 616.79-34.4 616.79-24.35 623.84-24.35 623.84-18.15 616.79-18.15 616.79-6.05 626.14-6.05 626.14 0ZM650.35 0.6L650.35 0.6Q646.55 0.6 644-0.75 641.45-2.1 640.15-4.93 638.85-7.75 638.7-12.25L638.7-12.25 646.35-13.4Q646.4-10.8 646.82-9.2 647.25-7.6 648.02-6.9 648.8-6.2 649.9-6.2L649.9-6.2Q651.3-6.2 651.72-7.15 652.15-8.1 652.15-9.15L652.15-9.15Q652.15-11.65 650.95-13.38 649.75-15.1 647.7-16.85L647.7-16.85 644.2-19.9Q641.9-21.85 640.32-24.33 638.75-26.8 638.75-30.45L638.75-30.45Q638.75-35.6 641.8-38.33 644.85-41.05 650.1-41.05L650.1-41.05Q653.35-41.05 655.32-39.95 657.3-38.85 658.32-37.08 659.35-35.3 659.72-33.33 660.1-31.35 660.15-29.55L660.15-29.55 652.45-28.6Q652.4-30.4 652.22-31.73 652.05-33.05 651.5-33.77 650.95-34.5 649.8-34.5L649.8-34.5Q648.55-34.5 647.97-33.45 647.4-32.4 647.4-31.35L647.4-31.35Q647.4-29.1 648.47-27.68 649.55-26.25 651.3-24.7L651.3-24.7 654.65-21.75Q657.3-19.5 659.12-16.65 660.95-13.8 660.95-9.6L660.95-9.6Q660.95-6.75 659.65-4.42 658.35-2.1 655.97-0.75 653.6 0.6 650.35 0.6ZM682.9 0L673.95 0 673.95-40.5 682.9-40.5 682.9 0ZM708.91 0.6L708.91 0.6Q704.71 0.6 702.29-1.15 699.86-2.9 698.84-6.08 697.81-9.25 697.81-13.4L697.81-13.4 697.81-27Q697.81-31.3 698.91-34.45 700.01-37.6 702.69-39.33 705.36-41.05 709.96-41.05L709.96-41.05Q714.46-41.05 717.04-39.55 719.61-38.05 720.71-35.4 721.81-32.75 721.81-29.2L721.81-29.2 721.81-26.6 713.06-26.6 713.06-29.9Q713.06-31.2 712.89-32.3 712.71-33.4 712.09-34.08 711.46-34.75 710.06-34.75L710.06-34.75Q708.61-34.75 707.96-33.98 707.31-33.2 707.14-32.05 706.96-30.9 706.96-29.65L706.96-29.65 706.96-10.9Q706.96-9.55 707.24-8.38 707.51-7.2 708.24-6.48 708.96-5.75 710.31-5.75L710.31-5.75Q711.71-5.75 712.46-6.5 713.21-7.25 713.51-8.45 713.81-9.65 713.81-11L713.81-11 713.81-15.75 710.16-15.75 710.16-21 721.86-21 721.86 0 715.96 0 715.46-3.35Q714.66-1.65 713.11-0.53 711.56 0.6 708.91 0.6ZM744.52 0L736.87 0 736.87-40.5 743.17-40.5 751.47-21 751.47-40.5 758.87-40.5 758.87 0 752.82 0 744.52-21 744.52 0Z" opacity="1" transform="matrix(1,0,0,1,0,0)" fill="#ffffff" class="slogan-text-1" data-fill-palette-color="secondary" id="text-1"></path></svg></g></svg></g></svg></g></svg></g></svg></g><defs></defs></svg><rect width="395.5199999999999" height="87.28420624966623" fill="none" stroke="none" visibility="hidden"></rect></g></svg></g></svg>